<svg width="60" height="60" viewBox="0 0 60 60" fill="none" xmlns="http://www.w3.org/2000/svg">
<path d="M38.8111 13.4211H31.4564C31.0863 13.4211 30.7878 13.7331 30.7878 14.1201V28.3288C30.8803 31.7117 30.7341 35.7219 30.3341 36.4084C30.3043 36.449 30.2744 36.4958 30.2535 36.5426C29.7759 37.5818 28.194 38.6585 26.3762 38.6585C24.4868 38.6585 22.263 36.9546 21.6183 35.0135C21.5617 34.8411 21.443 34.6987 21.2875 34.6165C21.1319 34.5343 20.9518 34.5188 20.7855 34.5734L14.6755 36.5738C14.3591 36.6768 14.1681 37.0045 14.2188 37.3478C14.2218 37.3696 14.2278 37.3915 14.2308 37.4102C14.9232 42.8965 19.8841 46.5789 26.606 46.5789C33.3309 46.5789 38.2947 42.8933 38.9872 37.404C38.9932 37.3728 38.9992 37.3447 39.0022 37.3135C39.4678 32.6261 39.4738 28.3538 39.4738 28.3101V14.1201C39.4797 13.7362 39.1812 13.4211 38.8111 13.4211Z" fill="#00C98D"/>
<path d="M30.0002 0C47.4332 0 60 13.8803 60 30.0276C60 46.4515 48.0752 60 30.0004 60C11.9257 60 0.000168287 46.4518 0.000168287 30.0276C-0.0530341 13.8803 12.5137 0 30.0002 0ZM10.1606 30.0276C10.1606 41.0322 19.3051 50.7096 29.9468 50.7096C40.5884 50.7096 49.7326 41.032 49.7326 30.0276C49.7326 18.1381 40.5884 9.2351 29.947 9.2351C19.3586 9.2351 10.1609 18.1381 10.1609 30.0276H10.1606Z" fill="#F9CB81"/>
<path d="M26.8182 48.5712H10.3198V4.36547C10.3198 3.69699 9.95834 3.1579 9.51019 3.1579H1.59887C1.15072 3.1579 0.789307 3.69699 0.789307 4.36547V58.7924C0.789307 59.4609 1.15072 60 1.59887 60H26.8218C27.27 60 27.6314 59.4609 27.6314 58.7924V49.7788C27.6304 49.4581 27.5442 49.151 27.3919 48.9247C27.2395 48.6984 27.0332 48.5713 26.8182 48.5712Z" fill="#F24E1E"/>
</svg>
